<?xml version="1.0" encoding="UTF-8"?>
<svg width="36px" height="36px" viewBox="0 0 36 36" version="1.1" xmlns="http://www.w3.org/2000/svg" xmlns:xlink="http://www.w3.org/1999/xlink">
    <!-- Generator: Sketch 47.1 (45422) - http://www.bohemiancoding.com/sketch -->
    <title>instagram-logo</title>
    <desc>Created with Sketch.</desc>
    <defs></defs>
    <g id="Page-1" stroke="none" stroke-width="1" fill="none" fill-rule="evenodd">
        <g id="Main-Page" transform="translate(-696.000000, -3315.000000)" fill-rule="nonzero" fill="#FFFFFF">
            <g id="Social-Media" transform="translate(548.000000, 3315.000000)">
                <g id="instagram-logo" transform="translate(148.000000, 0.000000)">
                    <path d="M17.874,21.45312 C19.84608,21.45312 21.45384,19.84824 21.45384,17.87472 C21.45384,17.09568 21.19896,16.3764 20.77704,15.78888 C20.12688,14.88744 19.06992,14.29632 17.87616,14.29632 C16.68168,14.29632 15.62544,14.88672 14.97384,15.78816 C14.55048,16.37568 14.29776,17.09496 14.29704,17.874 C14.29488,19.84752 15.9012,21.45312 17.874,21.45312 Z" id="Shape"></path>
                    <polygon id="Shape" points="25.68816 13.49712 25.68816 10.4976 25.68816 10.0512 25.2396 10.05264 22.24152 10.062 22.25304 13.50864"></polygon>
                    <path d="M17.87472,0 C8.01864,0 0,8.01864 0,17.87472 C0,27.73008 8.01864,35.74944 17.87472,35.74944 C27.73008,35.74944 35.74944,27.73008 35.74944,17.87472 C35.74944,8.01864 27.73152,0 17.87472,0 Z M28.0404,15.78888 L28.0404,24.11208 C28.0404,26.28 26.27784,28.04184 24.11136,28.04184 L11.63808,28.04184 C9.47088,28.04184 7.70904,26.28 7.70904,24.11208 L7.70904,15.78888 L7.70904,11.6388 C7.70904,9.4716 9.47088,7.70976 11.63808,7.70976 L24.11064,7.70976 C26.27784,7.70976 28.0404,9.4716 28.0404,11.6388 L28.0404,15.78888 Z" id="Shape"></path>
                    <path d="M23.43528,17.87472 C23.43528,20.93976 20.9412,23.43528 17.87472,23.43528 C14.80824,23.43528 12.31488,20.93976 12.31488,17.87472 C12.31488,17.13744 12.46176,16.43256 12.72384,15.78888 L9.68904,15.78888 L9.68904,24.11208 C9.68904,25.18776 10.5624,26.05896 11.63736,26.05896 L24.10992,26.05896 C25.18344,26.05896 26.05824,25.18776 26.05824,24.11208 L26.05824,15.78888 L23.022,15.78888 C23.28624,16.43256 23.43528,17.13744 23.43528,17.87472 Z" id="Shape"></path>
                </g>
            </g>
        </g>
    </g>
</svg>